<svg xmlns="http://www.w3.org/2000/svg" width="180" height="180" viewBox="0 0 180 180">
  <g fill="#39412c" opacity="0.02">
    <circle cx="12" cy="7" r="0.8"/>
    <circle cx="47" cy="3" r="0.6"/>
    <circle cx="89" cy="11" r="1.1"/>
    <circle cx="133" cy="6" r="0.5"/>
    <circle cx="166" cy="14" r="0.9"/>
    <circle cx="25" cy="22" r="0.7"/>
    <circle cx="71" cy="19" r="1.0"/>
    <circle cx="108" cy="27" r="0.6"/>
    <circle cx="151" cy="24" r="0.8"/>
    <circle cx="6" cy="38" r="1.2"/>
    <circle cx="56" cy="33" r="0.5"/>
    <circle cx="96" cy="41" r="0.9"/>
    <circle cx="139" cy="36" r="0.7"/>
    <circle cx="173" cy="44" r="0.6"/>
    <circle cx="33" cy="52" r="1.0"/>
    <circle cx="81" cy="49" r="0.8"/>
    <circle cx="120" cy="57" r="0.5"/>
    <circle cx="160" cy="53" r="1.1"/>
  </g>
  <g fill="#39412c" opacity="0.03">
    <circle cx="18" cy="63" r="0.6"/>
    <circle cx="62" cy="68" r="1.0"/>
    <circle cx="104" cy="61" r="0.7"/>
    <circle cx="146" cy="69" r="0.5"/>
    <circle cx="9" cy="79" r="0.9"/>
    <circle cx="44" cy="75" r="1.2"/>
    <circle cx="88" cy="83" r="0.6"/>
    <circle cx="127" cy="77" r="0.8"/>
    <circle cx="168" cy="84" r="0.5"/>
    <circle cx="29" cy="93" r="1.0"/>
    <circle cx="70" cy="97" r="0.7"/>
    <circle cx="113" cy="91" r="0.9"/>
    <circle cx="155" cy="99" r="0.6"/>
    <circle cx="15" cy="108" r="0.8"/>
    <circle cx="53" cy="104" r="0.5"/>
    <circle cx="97" cy="112" r="1.1"/>
    <circle cx="141" cy="107" r="0.7"/>
    <circle cx="176" cy="116" r="0.9"/>
  </g>
  <g fill="#39412c" opacity="0.04">
    <circle cx="37" cy="121" r="0.6"/>
    <circle cx="78" cy="126" r="0.9"/>
    <circle cx="118" cy="119" r="0.5"/>
    <circle cx="158" cy="127" r="1.0"/>
    <circle cx="8" cy="134" r="0.7"/>
    <circle cx="48" cy="139" r="1.2"/>
    <circle cx="92" cy="131" r="0.6"/>
    <circle cx="132" cy="142" r="0.8"/>
    <circle cx="170" cy="136" r="0.5"/>
    <circle cx="22" cy="151" r="0.9"/>
    <circle cx="65" cy="147" r="0.7"/>
    <circle cx="106" cy="155" r="1.1"/>
    <circle cx="148" cy="149" r="0.5"/>
    <circle cx="5" cy="163" r="0.8"/>
    <circle cx="42" cy="168" r="0.6"/>
    <circle cx="84" cy="161" r="1.0"/>
    <circle cx="124" cy="172" r="0.7"/>
    <circle cx="163" cy="166" r="0.9"/>
  </g>
  <g fill="#39412c" opacity="0.05">
    <circle cx="98" cy="9" r="0.5"/>
    <circle cx="31" cy="12" r="0.8"/>
    <circle cx="143" cy="17" r="0.6"/>
    <circle cx="59" cy="6" r="1.0"/>
    <circle cx="174" cy="31" r="0.7"/>
    <circle cx="115" cy="46" r="0.5"/>
    <circle cx="135" cy="63" r="0.9"/>
    <circle cx="74" cy="71" r="0.6"/>
    <circle cx="38" cy="86" r="1.1"/>
    <circle cx="165" cy="93" r="0.5"/>
    <circle cx="126" cy="103" r="0.8"/>
    <circle cx="50" cy="118" r="0.7"/>
    <circle cx="110" cy="138" r="0.6"/>
    <circle cx="86" cy="144" r="1.0"/>
    <circle cx="28" cy="166" r="0.5"/>
    <circle cx="149" cy="173" r="0.8"/>
  </g>
  <g stroke="#39412c" stroke-width="0.6" stroke-linecap="round" fill="none">
    <line x1="14" y1="30" x2="20" y2="27" opacity="0.03"/>
    <line x1="102" y1="18" x2="108" y2="23" opacity="0.02"/>
    <line x1="66" y1="42" x2="70" y2="49" opacity="0.04"/>
    <line x1="150" y1="40" x2="155" y2="37" opacity="0.03"/>
    <line x1="24" y1="66" x2="31" y2="68" opacity="0.05"/>
    <line x1="122" y1="72" x2="126" y2="66" opacity="0.02"/>
    <line x1="172" y1="60" x2="176" y2="65" opacity="0.04"/>
    <line x1="8" y1="98" x2="13" y2="103" opacity="0.03"/>
    <line x1="80" y1="95" x2="88" y2="93" opacity="0.02"/>
    <line x1="138" y1="112" x2="142" y2="118" opacity="0.05"/>
    <line x1="34" y1="130" x2="40" y2="127" opacity="0.03"/>
    <line x1="98" y1="142" x2="102" y2="148" opacity="0.04"/>
    <line x1="58" y1="160" x2="66" y2="162" opacity="0.02"/>
    <line x1="160" y1="152" x2="164" y2="146" opacity="0.04"/>
  </g>
</svg>
