<svg xmlns="http://www.w3.org/2000/svg" width="180" height="180" viewBox="0 0 180 180">
  <g fill="#f2f4ea" opacity="0.03">
    <circle cx="16" cy="9" r="0.7"/>
    <circle cx="52" cy="5" r="1.0"/>
    <circle cx="93" cy="13" r="0.5"/>
    <circle cx="137" cy="8" r="0.9"/>
    <circle cx="170" cy="16" r="0.6"/>
    <circle cx="28" cy="24" r="1.1"/>
    <circle cx="68" cy="21" r="0.5"/>
    <circle cx="111" cy="29" r="0.8"/>
    <circle cx="154" cy="26" r="0.6"/>
    <circle cx="9" cy="40" r="0.9"/>
    <circle cx="59" cy="35" r="0.7"/>
    <circle cx="99" cy="43" r="1.2"/>
    <circle cx="142" cy="38" r="0.5"/>
    <circle cx="175" cy="46" r="0.8"/>
    <circle cx="36" cy="54" r="0.6"/>
    <circle cx="84" cy="51" r="1.0"/>
    <circle cx="123" cy="59" r="0.7"/>
    <circle cx="162" cy="55" r="0.5"/>
  </g>
  <g fill="#f2f4ea" opacity="0.04">
    <circle cx="21" cy="65" r="0.9"/>
    <circle cx="64" cy="70" r="0.5"/>
    <circle cx="107" cy="63" r="1.1"/>
    <circle cx="149" cy="71" r="0.7"/>
    <circle cx="11" cy="81" r="0.6"/>
    <circle cx="47" cy="77" r="0.8"/>
    <circle cx="91" cy="85" r="0.5"/>
    <circle cx="130" cy="79" r="1.0"/>
    <circle cx="171" cy="86" r="0.7"/>
    <circle cx="32" cy="95" r="0.6"/>
    <circle cx="73" cy="99" r="1.2"/>
    <circle cx="116" cy="93" r="0.5"/>
    <circle cx="157" cy="101" r="0.9"/>
    <circle cx="17" cy="110" r="0.7"/>
    <circle cx="56" cy="106" r="1.0"/>
    <circle cx="100" cy="114" r="0.6"/>
    <circle cx="144" cy="109" r="0.8"/>
    <circle cx="177" cy="118" r="0.5"/>
  </g>
  <g fill="#f2f4ea" opacity="0.05">
    <circle cx="40" cy="123" r="0.8"/>
    <circle cx="81" cy="128" r="0.5"/>
    <circle cx="121" cy="121" r="1.0"/>
    <circle cx="161" cy="129" r="0.6"/>
    <circle cx="10" cy="136" r="0.9"/>
    <circle cx="51" cy="141" r="0.5"/>
    <circle cx="95" cy="133" r="1.1"/>
    <circle cx="135" cy="144" r="0.7"/>
    <circle cx="172" cy="138" r="0.6"/>
    <circle cx="25" cy="153" r="1.0"/>
    <circle cx="68" cy="149" r="0.5"/>
    <circle cx="109" cy="157" r="0.8"/>
    <circle cx="151" cy="151" r="0.6"/>
    <circle cx="7" cy="165" r="1.2"/>
    <circle cx="45" cy="170" r="0.7"/>
    <circle cx="87" cy="163" r="0.5"/>
    <circle cx="127" cy="174" r="0.9"/>
    <circle cx="166" cy="168" r="0.6"/>
  </g>
  <g fill="#f2f4ea" opacity="0.06">
    <circle cx="101" cy="11" r="0.6"/>
    <circle cx="34" cy="14" r="0.9"/>
    <circle cx="146" cy="19" r="0.5"/>
    <circle cx="62" cy="8" r="0.8"/>
    <circle cx="176" cy="33" r="0.6"/>
    <circle cx="118" cy="48" r="1.0"/>
    <circle cx="138" cy="65" r="0.5"/>
    <circle cx="77" cy="73" r="0.9"/>
    <circle cx="41" cy="88" r="0.6"/>
    <circle cx="167" cy="95" r="0.8"/>
    <circle cx="129" cy="105" r="0.5"/>
    <circle cx="53" cy="120" r="1.1"/>
    <circle cx="113" cy="140" r="0.6"/>
    <circle cx="89" cy="146" r="0.7"/>
    <circle cx="30" cy="168" r="0.5"/>
    <circle cx="152" cy="175" r="0.8"/>
  </g>
  <g stroke="#f2f4ea" stroke-width="0.6" stroke-linecap="round" fill="none">
    <line x1="17" y1="32" x2="23" y2="29" opacity="0.04"/>
    <line x1="105" y1="20" x2="111" y2="25" opacity="0.03"/>
    <line x1="69" y1="44" x2="73" y2="51" opacity="0.05"/>
    <line x1="153" y1="42" x2="158" y2="39" opacity="0.04"/>
    <line x1="27" y1="68" x2="34" y2="70" opacity="0.06"/>
    <line x1="125" y1="74" x2="129" y2="68" opacity="0.03"/>
    <line x1="174" y1="62" x2="178" y2="67" opacity="0.05"/>
    <line x1="10" y1="100" x2="15" y2="105" opacity="0.04"/>
    <line x1="83" y1="97" x2="91" y2="95" opacity="0.03"/>
    <line x1="141" y1="114" x2="145" y2="120" opacity="0.06"/>
    <line x1="37" y1="132" x2="43" y2="129" opacity="0.04"/>
    <line x1="101" y1="144" x2="105" y2="150" opacity="0.05"/>
    <line x1="61" y1="162" x2="69" y2="164" opacity="0.03"/>
    <line x1="163" y1="154" x2="167" y2="148" opacity="0.05"/>
  </g>
</svg>
