<svg xmlns="http://www.w3.org/2000/svg" width="240" height="160" viewBox="0 0 240 160">
  <g opacity="0.34">
    <path d="M236 150 C 190 132, 130 96, 64 34" fill="none" stroke="#63783f" stroke-width="2.2" stroke-linecap="round" opacity="0.7"/>
    <path d="M150 108 C 132 92, 120 74, 114 54" fill="none" stroke="#7d8768" stroke-width="1.5" stroke-linecap="round" opacity="0.6"/>
    <ellipse cx="196" cy="128" rx="11" ry="14" fill="#7d8768" opacity="0.5" transform="rotate(-25 196 128)"/>
    <ellipse cx="176" cy="134" rx="10" ry="13" fill="#a6ad97" opacity="0.55" transform="rotate(30 176 134)"/>
    <ellipse cx="161" cy="112" rx="11" ry="14" fill="#63783f" opacity="0.45" transform="rotate(-15 161 112)"/>
    <ellipse cx="141" cy="118" rx="10" ry="13" fill="#c7d6b1" opacity="0.65" transform="rotate(40 141 118)"/>
    <ellipse cx="125" cy="94" rx="10" ry="13" fill="#7d8768" opacity="0.5" transform="rotate(-30 125 94)"/>
    <ellipse cx="105" cy="99" rx="9" ry="12" fill="#a6ad97" opacity="0.55" transform="rotate(25 105 99)"/>
    <ellipse cx="93" cy="77" rx="10" ry="12" fill="#63783f" opacity="0.45" transform="rotate(-20 93 77)"/>
    <ellipse cx="75" cy="81" rx="9" ry="11" fill="#c7d6b1" opacity="0.6" transform="rotate(35 75 81)"/>
    <ellipse cx="67" cy="54" rx="8" ry="10" fill="#7d8768" opacity="0.5" transform="rotate(-40 67 54)"/>
    <ellipse cx="57" cy="38" rx="7" ry="9" fill="#a6ad97" opacity="0.55" transform="rotate(-10 57 38)"/>
    <ellipse cx="70" cy="29" rx="6" ry="8" fill="#c7d6b1" opacity="0.6" transform="rotate(25 70 29)"/>
    <ellipse cx="129" cy="72" rx="8" ry="10" fill="#a6ad97" opacity="0.5" transform="rotate(20 129 72)"/>
    <ellipse cx="117" cy="56" rx="7" ry="9" fill="#c7d6b1" opacity="0.6" transform="rotate(-15 117 56)"/>
    <ellipse cx="110" cy="44" rx="6" ry="7" fill="#7d8768" opacity="0.5" transform="rotate(10 110 44)"/>
  </g>
</svg>
