<svg xmlns="http://www.w3.org/2000/svg" width="160" height="220" viewBox="0 0 160 220">
  <g opacity="0.34">
    <path d="M148 212 C 118 164, 92 104, 60 24" fill="none" stroke="#63783f" stroke-width="2" stroke-linecap="round" opacity="0.7"/>
    <ellipse cx="128" cy="190" rx="5" ry="16" fill="#63783f" opacity="0.5" transform="rotate(58 128 190)"/>
    <ellipse cx="148" cy="178" rx="5" ry="15" fill="#7d8768" opacity="0.55" transform="rotate(-55 148 178)"/>
    <ellipse cx="114" cy="166" rx="5" ry="15" fill="#7d8768" opacity="0.5" transform="rotate(60 114 166)"/>
    <ellipse cx="136" cy="152" rx="5" ry="14" fill="#a6ad97" opacity="0.55" transform="rotate(-52 136 152)"/>
    <ellipse cx="101" cy="142" rx="4.5" ry="14" fill="#63783f" opacity="0.5" transform="rotate(62 101 142)"/>
    <ellipse cx="122" cy="128" rx="4.5" ry="13" fill="#c7d6b1" opacity="0.6" transform="rotate(-50 122 128)"/>
    <ellipse cx="90" cy="118" rx="4.5" ry="13" fill="#7d8768" opacity="0.5" transform="rotate(64 90 118)"/>
    <ellipse cx="110" cy="104" rx="4" ry="12" fill="#a6ad97" opacity="0.55" transform="rotate(-48 110 104)"/>
    <ellipse cx="80" cy="96" rx="4" ry="12" fill="#63783f" opacity="0.5" transform="rotate(66 80 96)"/>
    <ellipse cx="99" cy="82" rx="4" ry="11" fill="#c7d6b1" opacity="0.6" transform="rotate(-46 99 82)"/>
    <ellipse cx="72" cy="74" rx="3.5" ry="10" fill="#7d8768" opacity="0.5" transform="rotate(68 72 74)"/>
    <ellipse cx="89" cy="61" rx="3.5" ry="9" fill="#a6ad97" opacity="0.55" transform="rotate(-44 89 61)"/>
    <ellipse cx="66" cy="54" rx="3" ry="8" fill="#63783f" opacity="0.5" transform="rotate(70 66 54)"/>
    <ellipse cx="80" cy="42" rx="3" ry="7" fill="#c7d6b1" opacity="0.6" transform="rotate(-42 80 42)"/>
    <ellipse cx="61" cy="36" rx="2.5" ry="6" fill="#7d8768" opacity="0.5" transform="rotate(72 61 36)"/>
    <ellipse cx="68" cy="26" rx="2.5" ry="5" fill="#a6ad97" opacity="0.55" transform="rotate(-30 68 26)"/>
  </g>
</svg>
